PathFileType	4	(X/Y/Z)	C:/Users/beibeiliu/ov580/test_trc/capture2\sequence.4_training_dense_right.trc
DataRate	CameraRate	NumFrames	NumMarkers	Units	OrigDataRate	OrigDataStartFrame	OrigNumFrames
120	120	12	19	mm	120	134	355
Frame#	Time	ThumbCMC			ThumbMCP			ThumbIP			ThumbTip			IndexMCP			IndexPIP			IndexTip			MiddleMCP			MiddlePIP			MiddleTip			RingMCP			RingPIP			RingTip			PinkyMCP			PinkyPIP			PinkyTip			BackHand1			BackHand2			BackHand3	
		X0	Y0	Z0	X1	Y1	Z1	X2	Y2	Z2	X3	Y3	Z3	X4	Y4	Z4	X5	Y5	Z5	X6	Y6	Z6	X7	Y7	Z7	X8	Y8	Z8	X9	Y9	Z9	X10	Y10	Z10	X11	Y11	Z11	X12	Y12	Z12	X13	Y13	Z13	X14	Y14	Z14	X15	Y15	Z15	X16	Y16	Z16	X17	Y17	Z17	X18	Y18	Z18	
133	1.10833	153.762	62.0681	-11.7702	134.966	58.5205	-44.387	128.629	51.8565	-67.8246	129.918	27.8474	-80.7789	196.045	42.9353	-72.6876	200.208	40.5063	-96.8767	208.651	30.4137	-120.676	165.438	23.5959	-79.5998	137.751	34.6349	-81.7368	134.766	35.5113	-43.3893	153.312	9.18642	-70.9546	125.639	20.0558	-61.8545	133.737	25.9298	-29.2104	145.292	-4.09311	-62.0619	124.928	12.9967	-44.9857	139.685	20.3606	-23.4315	181.762	2.01178	-24.7293	178.149	6.45898	4.93864	186.304	35.9775	-9.61573	
134	1.11667	155.654	61.0494	-10.7057	135.062	62.8487	-39.9561	127.7	59.3505	-71.4423	132.008	31.6008	-83.7336	196.28	45.3479	-70.6218	201.481	49.1478	-93.8882	209.897	41.7933	-119.903	168.768	33.049	-80.0965	136.627	39.0255	-79.4395	139.492	39.9248	-39.5855	155.778	17.6211	-72.6411	128.338	26.9663	-63.5603	139.679	34.5986	-28.6522	151.043	1.50322	-61.7977	129.084	19.9009	-47.4576	142.779	24.4238	-22.6513	184.829	7.29395	-22.539	175.904	8.35463	8.94644	187.44	35.2597	-7.00636	
135	1.125	155.71	67.846	-11.7205	133.268	71.3296	-40.6954	127.549	65.1636	-70.5678	132.679	38.4766	-81.0603	196.226	56.9735	-68.5569	200.851	53.4698	-93.5217	208.854	48.8838	-116.762	166.667	38.2957	-80.8502	136.619	44.9625	-78.9241	136.144	46.3315	-42.848	153.587	25.1608	-74.271	128.079	34.4759	-60.2449	136.256	36.2621	-30.4457	150.651	9.12757	-62.4204	127.669	23.3908	-46.6345	143.65	26.9582	-20.4059	184.137	11.7156	-27.455	179.182	12.4048	7.94393	187.294	42.1162	-11.2822	
136	1.13333	153.512	72.595	-7.40997	134.338	72.7865	-38.4069	128.219	68.2698	-65.2337	132.724	45.4482	-80.0343	194.715	60.6453	-67.0762	200.831	67.8437	-90.8478	208.59	61.4762	-117.637	167.25	46.3496	-79.0803	138.497	54.6707	-80.22	136.518	51.7404	-42.7568	155.838	29.0361	-72.5827	128.651	38.3809	-62.1159	137.337	41.8699	-27.7919	151.317	16.5238	-64.3849	128.315	28.36	-47.1823	144.935	33.9208	-21.6547	186.097	17.4367	-27.9529	177.01	14.1815	6.65463	188.734	46.7182	-9.60811	
137	1.14167	151.256	78.2016	-6.10125	131.887	79.1748	-37.9799	126.236	77.5411	-67.2136	130.243	54.1316	-78.5015	194.847	72.308	-69.2457	198.286	78.0428	-90.876	206.903	76.9401	-113.514	166.582	56.2295	-77.9275	134.231	64.1677	-74.9979	137.055	61.2049	-40.7011	153.566	39.1757	-74.6556	127.025	49.157	-58.9171	139.217	50.2139	-27.155	149.08	26.9453	-65.1705	127.966	36.0394	-48.8665	144.709	35.1854	-19.4461	185.633	21.4969	-27.1557	181.405	24.3116	4.50528	187.525	56.5764	-9.05919	
138	1.15	149.425	84.2347	-4.85466	128.364	87.0754	-34.3765	122.407	85.7079	-64.0336	127.844	63.076	-83.2102	192.162	82.5431	-67.7541	196.758	90.7925	-91.144	203.275	88.6931	-112.39	164.878	67.5261	-78.2496	133.041	71.7344	-72.4836	134.39	64.0493	-40.6902	155.679	48.478	-71.7933	125.262	53.6418	-58.9621	137.317	57.3555	-27.5096	149.727	35.1679	-66.0191	127.832	44.2024	-49.8032	142.536	44.4729	-19.3777	187.448	34.399	-29.1648	181.155	27.64	2.40261	184.704	61.8601	-5.50073	
139	1.15833	147.839	86.5144	-2.2699	128.572	90.2733	-32.9824	120.092	92.6321	-61.0681	127.051	72.1358	-76.9438	189.459	97.839	-63.9753	192.397	104.412	-88.9924	198.219	104.652	-108.569	164.326	78.5036	-75.8771	131.23	79.7327	-71.6256	133.893	71.4581	-38.67	155.324	60.6534	-70.6147	126.049	62.2458	-61.7973	136.517	61.8986	-26.5827	148.361	41.8375	-66.652	127.104	51.1241	-52.4373	140.922	52.364	-20.3936	185.844	43.9947	-28.7616	181.401	35.308	3.41803	184.262	68.41	-4.91	
140	1.16667	146.725	92.7376	-1.93538	122.293	99.8108	-28.9116	116.411	98.8832	-54.7398	125.341	80.5407	-76.5301	184.621	106.168	-58.9636	187.925	112.468	-87.2231	194.758	119.468	-107.263	163.932	87.2707	-71.692	129.405	89.3762	-70.9385	131.019	77.1532	-36.708	152.083	65.8932	-72.8764	124.188	71.9085	-60.2924	134.053	65.9266	-25.5669	151.591	49.1814	-65.1788	126.033	57.9285	-53.2676	141.467	60.2116	-19.8915	182.735	46.4372	-26.962	179.146	41.9155	1.21686	182.474	78.3875	-2.93532	
141	1.175	141.508	99.3141	4.4943	121.026	102.482	-28.0651	113.293	107.137	-55.2522	121.454	87.6434	-73.2671	181.667	117.669	-59.154	183.207	121.5	-81.8943	188.781	127.359	-104.418	159.996	92.8122	-70.5888	127.438	97.8351	-69.7834	127.307	85.3876	-35.8019	148.822	79.0572	-70.1271	121.182	76.4417	-57.1692	128.577	74.9038	-26.9157	148.527	54.9874	-65.9369	123.88	63.8318	-48.3084	137.71	61.513	-21.0957	183.244	59.3151	-27.735	179.436	44.8445	3.19531	180.561	80.1498	-3.32816	
142	1.18333	139.711	104.382	2.36535	115.695	109.285	-23.333	110.153	111.435	-52.5553	117.052	94.5173	-70.9325	177.565	121.153	-56.4437	178.029	132.058	-77.5186	184.479	138.725	-99.5937	155.221	101.458	-70.4188	124.982	99.5449	-70.1451	128.159	89.4525	-31.3781	144.103	83.4231	-70.3269	119.402	84.3819	-58.7053	129.62	77.7357	-22.4522	144.725	63.5653	-65.1935	121.552	70.0449	-49.7255	135.926	65.3808	-17.7105	179.656	63.14	-24.1288	179.319	50.1367	-0.624231	179.562	89.0849	-0.998449	
143	1.19167	138.245	104.999	3.62092	113.163	110.574	-19.607	105.509	114.895	-50.263	115.881	98.4416	-72.8466	172.43	127.05	-51.3287	174.001	140.284	-77.4638	179.422	143.584	-99.9696	153.107	106.295	-66.8399	120.688	103.832	-67.5	124.406	94.3135	-29.4282	145.792	87.1783	-66.169	114.373	83.8356	-51.7693	125.212	81.0875	-22.0774	144.51	66.8523	-63.7421	119.049	70.715	-48.1795	134.323	74.6648	-18.1568	180.421	71.0288	-27.1789	174.912	55.6745	6.10398	174.128	91.8506	-0.704593	
144	1.2	133.849	105.345	10.5613	108.747	112.84	-18.2321	103.571	115.735	-45.863	109.501	104.125	-69.7325	168.987	133.058	-52.3218	169.919	142.028	-76.7728	173.247	152.324	-94.5029	149.319	112.751	-62.6342	116.571	107.765	-63.4364	118.976	97.1208	-29.5112	139.499	91.6783	-66.2178	113.321	87.0466	-54.8719	124.025	81.7841	-19.5309	139.929	70.5348	-63.9762	116.113	76.1582	-43.1981	130.329	76.121	-18.8348	175.413	74.0987	-27.0446	174.037	59.5973	7.36103	174.058	96.0811	0.31247	
